<svg xmlns="http://www.w3.org/2000/svg" viewBox="0 0 87.09 74.33"><defs><style>.cls-1{fill:#58a690;}</style></defs><title>Asset 2PSEG</title><g id="Layer_2" data-name="Layer 2"><g id="Layer_1-2" data-name="Layer 1"><path class="cls-1" d="M5.46,74.1a1.53,1.53,0,0,1-1.54-1.53V53.84A1.54,1.54,0,0,1,5.46,52.3h12A1.53,1.53,0,0,1,19,53.84V72.57a1.52,1.52,0,0,1-1.53,1.53ZM7,71.21,16.06,71,15.88,55.2,7,55.37Z"/><path class="cls-1" d="M26.86,74.1a1.53,1.53,0,0,1-1.53-1.53V43.14a1.54,1.54,0,0,1,1.53-1.54h12a1.54,1.54,0,0,1,1.54,1.54V72.57a1.53,1.53,0,0,1-1.54,1.53Zm1.54-2.89L37.47,71,37.29,44.5l-8.89.17Z"/><path class="cls-1" d="M48.27,74.1a1.53,1.53,0,0,1-1.54-1.53V53.84a1.54,1.54,0,0,1,1.54-1.54h12a1.53,1.53,0,0,1,1.53,1.54V72.57a1.52,1.52,0,0,1-1.53,1.53Zm1.53-2.89L58.87,71,58.69,55.2l-8.89.17Z"/><path class="cls-1" d="M69.67,74.1a1.53,1.53,0,0,1-1.53-1.53V32.43a1.54,1.54,0,0,1,1.53-1.53h12a1.54,1.54,0,0,1,1.54,1.53V72.57a1.53,1.53,0,0,1-1.54,1.53Zm1.54-2.89L80.27,71,80.1,33.79,71.21,34Z"/><path class="cls-1" d="M56.72,39a1.57,1.57,0,0,1-.79-.22,1.54,1.54,0,0,1-.7-1,1.52,1.52,0,0,1,.18-1.16L77.1.74A1.53,1.53,0,0,1,78.41,0a1.6,1.6,0,0,1,.8.22,1.54,1.54,0,0,1,.52,2.11L58,38.23A1.53,1.53,0,0,1,56.72,39Z"/><path class="cls-1" d="M50.83,40.76A1.58,1.58,0,0,1,50,40.5L35.68,30.85A1.54,1.54,0,0,1,37.4,28.3L51.69,38a1.54,1.54,0,0,1,.65,1,1.55,1.55,0,0,1-1.51,1.83Z"/><path class="cls-1" d="M15.35,42.23a1.53,1.53,0,0,1-1.53-1.69,1.48,1.48,0,0,1,.56-1l14-11.43a1.5,1.5,0,0,1,1-.35,1.54,1.54,0,0,1,1,2.73l-14,11.42A1.52,1.52,0,0,1,15.35,42.23Z"/><path class="cls-1" d="M80.76,11.68a1.54,1.54,0,0,1-1.49-1.13l-2-7.3L70.23,5.34a1.9,1.9,0,0,1-.4,0,1.54,1.54,0,0,1-1.49-1.14,1.57,1.57,0,0,1,.15-1.16,1.55,1.55,0,0,1,.94-.72L78,.05a1.75,1.75,0,0,1,.4,0,1.54,1.54,0,0,1,1.48,1.14l2.32,8.61a1.51,1.51,0,0,1-.15,1.16,1.56,1.56,0,0,1-.93.72A1.33,1.33,0,0,1,80.76,11.68Z"/><path class="cls-1" d="M1.54,74.33a1.54,1.54,0,1,1,0-3.07h84a1.54,1.54,0,0,1,0,3.07Z"/><path class="cls-1" d="M11.44,48.83a5.69,5.69,0,1,1,5.69-5.69A5.69,5.69,0,0,1,11.44,48.83Zm0-8.31a2.62,2.62,0,1,0,2.62,2.62A2.62,2.62,0,0,0,11.44,40.52Z"/><path class="cls-1" d="M32.84,32.71A5.69,5.69,0,1,1,38.53,27,5.7,5.7,0,0,1,32.84,32.71Zm0-8.31A2.62,2.62,0,1,0,35.46,27,2.63,2.63,0,0,0,32.84,24.4Z"/><path class="cls-1" d="M54.25,47.28a5.69,5.69,0,1,1,5.69-5.69A5.69,5.69,0,0,1,54.25,47.28Zm0-8.31a2.62,2.62,0,1,0,2.62,2.62A2.62,2.62,0,0,0,54.25,39Z"/></g></g></svg>