<svg xmlns="http://www.w3.org/2000/svg" viewBox="0 0 61.65 74.27"><defs><style>.cls-1{fill:#58a690;}</style></defs><title>Asset 4PSEG</title><g id="Layer_2" data-name="Layer 2"><g id="Layer_1-2" data-name="Layer 1"><path class="cls-1" d="M44.56,14.86a1.35,1.35,0,0,1-1.35-1.35V1.36A1.34,1.34,0,0,1,44.56,0a1.31,1.31,0,0,1,1,.4L57.67,12.55a1.35,1.35,0,0,1-1,2.31Zm1.36-2.56,7.89-.15L45.92,4.62Z"/><path class="cls-1" d="M1.36,74.27A1.36,1.36,0,0,1,0,72.91V1.36A1.36,1.36,0,0,1,1.36,0h43.2a1.33,1.33,0,0,1,1,.4L57.67,12.55a1.33,1.33,0,0,1,.4,1V63a1.36,1.36,0,0,1-2.71,0V14L44,2.67l-41.4,0,.15,69,52.8-.15-.15-.77a1.36,1.36,0,0,1,2.71,0v2.12a1.36,1.36,0,0,1-1.36,1.36Z"/><path class="cls-1" d="M29.29,60.73A20.95,20.95,0,1,1,50.23,39.78,21,21,0,0,1,29.29,60.73Zm0-39.18A18.23,18.23,0,1,0,47.52,39.78,18.26,18.26,0,0,0,29.29,21.55Z"/><path class="cls-1" d="M57.33,72.15a4.28,4.28,0,0,1-3-1.25L39.94,56.52a1.35,1.35,0,1,1,1.91-1.92L56.23,69a1.58,1.58,0,0,0,1.11.44A1.56,1.56,0,0,0,58.45,69a1.59,1.59,0,0,0,0-2.26L44.73,53a1.38,1.38,0,0,1,0-1.92,1.35,1.35,0,0,1,1-.4,1.33,1.33,0,0,1,1,.4L60.4,64.81a4.31,4.31,0,0,1-3.07,7.34Z"/><path class="cls-1" d="M16.81,47.31a1.36,1.36,0,1,1,0-2.71h25a1.36,1.36,0,0,1,0,2.71Z"/><path class="cls-1" d="M19.3,47.31A1.34,1.34,0,0,1,18,46V40a1.34,1.34,0,0,1,1.35-1.35H26A1.34,1.34,0,0,1,27.31,40v6A1.34,1.34,0,0,1,26,47.31Zm1.36-2.55,4.1-.16-.16-3.39-3.94.16Z"/><path class="cls-1" d="M26,47.31A1.35,1.35,0,0,1,24.6,46V36A1.36,1.36,0,0,1,26,34.66h6.65A1.36,1.36,0,0,1,34,36V46a1.35,1.35,0,0,1-1.36,1.35Zm1.35-2.55,4.1-.16-.15-7.38-4,.15Z"/><path class="cls-1" d="M32.61,47.31A1.35,1.35,0,0,1,31.26,46V32a1.36,1.36,0,0,1,1.35-1.36h6.66A1.36,1.36,0,0,1,40.63,32V46a1.35,1.35,0,0,1-1.36,1.35ZM34,44.76l4.1-.16-.16-11.37L34,33.38Z"/></g></g></svg>