<svg xmlns="http://www.w3.org/2000/svg" viewBox="0 0 65.69 65.69"><defs><style>.cls-1{fill:#58a690;}</style></defs><title>Asset 1PSEG</title><g id="Layer_2" data-name="Layer 2"><g id="Layer_1-2" data-name="Layer 1"><path class="cls-1" d="M25.76,51.51A25.76,25.76,0,1,1,51.51,25.76,25.78,25.78,0,0,1,25.76,51.51Zm0-48.67A22.92,22.92,0,1,0,48.67,25.76,22.94,22.94,0,0,0,25.76,2.84Z"/><path class="cls-1" d="M60.61,65.69A5,5,0,0,1,57,64.21l-17.4-17.4a1.37,1.37,0,0,1-.41-1,1.41,1.41,0,0,1,.41-1l5.18-5.18a1.41,1.41,0,0,1,1-.4,1.43,1.43,0,0,1,1,.4L64.21,57a5.08,5.08,0,0,1-3.6,8.67ZM42.52,45.92,59,62.2a2.22,2.22,0,0,0,1.58.65h0A2.24,2.24,0,0,0,62.2,59L45.81,42.64Z"/><path class="cls-1" d="M10.17,27.18a1.42,1.42,0,0,1-1.42-1.42,17,17,0,0,1,17-17,1.43,1.43,0,0,1,0,2.85A14.18,14.18,0,0,0,11.59,25.76,1.43,1.43,0,0,1,10.17,27.18Z"/></g></g></svg>