<svg xmlns="http://www.w3.org/2000/svg" viewBox="0 0 103.31 74.33"><defs><style>.cls-1{fill:#58a690;}</style></defs><title>Asset 3PSEG</title><g id="Layer_2" data-name="Layer 2"><g id="Layer_1-2" data-name="Layer 1"><path class="cls-1" d="M66.12,37.69a1.6,1.6,0,0,1-1.6-1.55A1.57,1.57,0,0,1,64.94,35l19.7-21.37a1.6,1.6,0,0,1,1.18-.52,1.56,1.56,0,0,1,1.09.43,1.6,1.6,0,0,1,.52,1.12A1.58,1.58,0,0,1,87,15.8L67.31,37.17A1.62,1.62,0,0,1,66.12,37.69Z"/><path class="cls-1" d="M56.35,39.34a1.6,1.6,0,0,1-.8-.22l-13.83-8a1.61,1.61,0,0,1-.59-2.2,1.64,1.64,0,0,1,1.4-.8,1.59,1.59,0,0,1,.8.21l13.83,8a1.61,1.61,0,0,1-.81,3Z"/><path class="cls-1" d="M8.88,54.78a1.59,1.59,0,0,1-1.16-.5A1.61,1.61,0,0,1,7.78,52L31.22,29.79a1.61,1.61,0,0,1,2.27.06,1.6,1.6,0,0,1-.06,2.28L10,54.34A1.62,1.62,0,0,1,8.88,54.78Z"/><path class="cls-1" d="M37,34.15a7.59,7.59,0,1,1,7.58-7.59A7.6,7.6,0,0,1,37,34.15ZM37,22.2a4.37,4.37,0,1,0,4.36,4.36A4.37,4.37,0,0,0,37,22.2Z"/><path class="cls-1" d="M61.73,48.48a7.59,7.59,0,1,1,7.59-7.59A7.6,7.6,0,0,1,61.73,48.48Zm0-11.95a4.36,4.36,0,1,0,4.37,4.36A4.36,4.36,0,0,0,61.73,36.53Z"/><path class="cls-1" d="M90.18,17.57A7.59,7.59,0,1,1,97.77,10,7.6,7.6,0,0,1,90.18,17.57Zm0-12A4.37,4.37,0,1,0,94.55,10,4.37,4.37,0,0,0,90.18,5.61Z"/><path class="cls-1" d="M7.94,68a1.61,1.61,0,0,1-1.61-1.61V1.61a1.61,1.61,0,0,1,3.22,0V65l92.15-.18a1.61,1.61,0,0,1,0,3.22Z"/><path class="cls-1" d="M14.27,9.55a1.61,1.61,0,0,1-1.14-.47L7.81,3.76,2.75,9.08a1.62,1.62,0,0,1-2.28,0A1.63,1.63,0,0,1,0,7.94,1.61,1.61,0,0,1,.47,6.8L6.8.47A1.6,1.6,0,0,1,7.94,0,1.62,1.62,0,0,1,9.08.47L15.4,6.8a1.58,1.58,0,0,1,.48,1.14,1.62,1.62,0,0,1-1.61,1.61Z"/><path class="cls-1" d="M95.37,74.33a1.61,1.61,0,0,1-1.14-2.75l5.32-5.32L94.23,61.2a1.61,1.61,0,0,1,1.14-2.75,1.63,1.63,0,0,1,1.14.47l6.32,6.33a1.62,1.62,0,0,1,.48,1.14,1.64,1.64,0,0,1-.48,1.14l-6.32,6.33A1.63,1.63,0,0,1,95.37,74.33Z"/></g></g></svg>